<svg width="80" height="80" xmlns="http://www.w3.org/2000/svg">

 <g>
  <title>Layer 1</title>
  <path d="m19.54023,25.86207c0,-0.22989 -0.06147,-0.93416 0.45977,-2.9885c0.41159,-1.62219 0.4842,-1.97537 1.6092,-3.44828c0.19734,-0.25836 0.45977,-0.22989 0.45977,-0.22989c0,0 0.25366,-0.02153 0.45977,0.22989c0.52549,0.641 1.54632,1.21692 2.52873,2.06897c0.86834,0.75311 2.29885,1.83908 2.98851,2.52874c0.91954,0.91954 1.6092,1.60919 2.29885,2.52873l0.22989,0.22989l0.22989,0.22989l0,0" id="svg_1" stroke="#000" fill="none"/>
  <path d="m44.82759,25.17241c0,0 -0.04347,-0.23403 0,-0.45977c0.23411,-1.21563 1.45889,-2.00125 1.83908,-2.52873c0.30056,-0.41701 0.68966,-0.68966 0.68966,-0.68966c0,0 0.06733,-0.16255 0.22989,0c0.16255,0.16255 0.51332,0.59534 1.37931,1.14943c1.2399,0.79333 2.86973,2.18008 4.5977,3.90804c1.72797,1.72796 2.52874,2.75862 3.44828,3.67816c0.45977,0.45977 0.45977,0.68966 0.68966,0.68966l0,0.22989" id="svg_2" stroke="#000" fill="none"/>
  <path d="m31.72414,48.85057c0,0 0,0.22989 0,0.22989c0,0.68966 0.37026,1.41593 0.68965,2.06897c0.36416,0.74458 0.61898,1.19218 0.91954,1.6092c0.19009,0.26374 0.68966,0.91954 1.14943,1.14943c0.45977,0.22989 0.9623,0.15921 1.37931,0.45977c0.26374,0.19009 0.47727,0.31786 0.68966,0.22989c0.30036,-0.12441 0.74316,-0.85822 2.06897,-2.06897c1.68046,-1.53462 4.24034,-3.32138 5.97701,-4.82759c1.47362,-1.27806 2.29885,-2.06897 2.75862,-2.29885l0,0" id="svg_3" stroke="#000" fill="none"/>
  <polyline stroke-linecap="round" id="svg_4" points="158.85057471264366,-8.850574712643677 158.85057471264366,-8.850574712643677 " stroke="#000" fill="none"/>
 </g>
</svg>